<svg xmlns="http://www.w3.org/2000/svg" width="210" height="166" fill="none"><path fill="#007CB1" fill-rule="evenodd" d="M165.393 95.07c-8.792 0-21.524-1.98-23.949-16.25l-23.042-3.797c0 26.727 21.827 38.572 46.081 38.572 29.557 0 45.017-14.88 45.017-34.776 0-23.8-22.552-29.266-31.296-31.386l-.837-.203c-27.132-6.532-32.287-8.352-32.287-16.404 0-9.11 8.793-12.3 16.37-12.3 7.43 0 18.493.457 21.375 13.062l23.038 3.34C205.863 9.871 185.097 0 162.511 0c-19.552 0-40.468 10.48-40.468 32.803 0 23.109 20.926 28.213 38.924 32.603 13.581 3.313 25.496 6.219 25.496 16.146 0 11.085-12.732 13.517-21.07 13.517Zm-110.37-7.14c-17.734 0-32.438-14.278-32.438-32.044 0-18.074 14.704-32.345 32.438-32.345 18.037 0 32.287 14.272 32.287 32.345 0 17.766-14.249 32.043-32.287 32.043Zm15.31 20.804h40.017l-.152-22.628H98.525c7.884-8.352 11.825-16.855 11.825-30.22 0-30.828-24.557-55.43-55.326-55.43C24.707.455 0 25.055 0 55.885c0 30.371 24.708 55.128 55.023 55.128a51.155 51.155 0 0 0 15.31-2.28Z" clip-rule="evenodd"/><path fill="#6CBEDE" d="M39.936 154.318c-3.516 6.62-10.662 11.052-18.672 11.052C9.566 165.37 0 155.815 0 144.072a21.287 21.287 0 0 1 6.245-15.002 21.333 21.333 0 0 1 15.02-6.238 21.592 21.592 0 0 1 10.754 2.925 21.57 21.57 0 0 1 7.859 7.896c-3.63 1.842-3.919 2.015-7.953 4.029a12.125 12.125 0 0 0-10.66-6.044 12.444 12.444 0 0 0-8.84 3.621 12.432 12.432 0 0 0-3.667 8.813 12.42 12.42 0 0 0 3.667 8.812 12.45 12.45 0 0 0 8.84 3.621c4.61 0 9.22-2.302 10.89-6.217h-.921c-1.844 0-6.051.058-8.356.058-1.095 0-1.614 0-1.614-.058v-7.597c5.82 0 13.946.057 21.034.057 0 1.208-.23 8.807-2.362 11.57Zm30.596-4.835 11.526 15.254H70.993l-10.372-14.793h-4.438v14.793h-9.105v-41.156h18.555c10.373 0 14.35 6.504 14.35 13.181 0 5.584-2.94 11.225-9.797 12.722l.346-.001Zm-14.349-18.88v12.375h7.03c4.323 0 7.896-.98 7.896-6.216 0-5.353-3.573-6.159-7.895-6.159h-7.031Zm50.824 34.595a21.321 21.321 0 0 1-11.825-3.6 21.28 21.28 0 0 1-7.83-9.556 21.249 21.249 0 0 1 4.646-23.174 21.305 21.305 0 0 1 23.212-4.58 21.291 21.291 0 0 1 9.546 7.846 21.26 21.26 0 0 1 3.573 11.822c0 11.744-9.624 21.242-21.322 21.242Zm-12.563-21.242a12.645 12.645 0 0 0 3.71 8.843 12.675 12.675 0 0 0 8.853 3.705c6.858 0 12.447-5.698 12.447-12.548s-5.589-12.606-12.447-12.606c-6.858 0-12.563 5.757-12.563 12.606Zm73.99 5.182c0 11.11-6.569 16.52-17.576 16.52-11.122 0-17.518-5.295-17.518-16.52V123.58h9.047v25.558c0 4.49 1.152 8.922 8.471 8.922 6.454 0 8.528-2.763 8.528-8.922V123.58h9.048v25.558Zm7.777-25.558h18.555c10.315 0 14.234 6.505 14.234 13.182 0 6.677-3.919 13.182-14.234 13.182h-9.507v14.736h-9.048v-41.1Zm9.048 19.341h7.03c4.148 0 7.952-.921 7.952-6.16 0-5.238-3.803-6.159-7.952-6.159h-7.03v12.319Z"/></svg>